<svg width="137" height="31" viewBox="0 0 137 31" fill="none" xmlns="http://www.w3.org/2000/svg">
<path d="M48.0962 6.14233H0V29.8692H48.0962V6.14233Z" fill="#0451DD"/>
<path d="M18.9894 13.6497C18.9894 13.6497 18.588 13.8103 18.0259 14.5329L14.9145 18.4472V20.7758C14.9145 21.378 15.1554 21.6791 15.1554 21.6791H11.3013C11.3013 21.6791 11.5422 21.398 11.5422 20.7958V18.4472L8.47091 14.573C7.90885 13.8705 7.4873 13.6697 7.4873 13.6697H11.4016C11.4016 13.6697 11.5221 14.0712 11.9236 14.6935L13.2283 16.7008H13.2685L14.5733 14.6935C14.9747 14.0712 15.0952 13.6697 15.0952 13.6697H18.9894V13.6497Z" fill="white"/>
<path d="M26.7181 13.6497H20.3147C20.3147 13.6497 20.5556 13.9307 20.5556 14.5329V20.7758C20.5556 21.378 20.3147 21.659 20.3147 21.659H24.1688C24.1688 21.659 23.9279 21.378 23.9279 20.7557V18.8086H26.7181C28.4846 18.8086 29.8295 17.8852 29.8295 16.2191C29.8295 14.5731 28.5448 13.6497 26.7181 13.6497ZM25.0119 17.3833H23.948V15.1552H25.032C25.8148 15.1552 26.4371 15.4563 26.4371 16.2592C26.4371 17.0622 25.7948 17.3833 25.0119 17.3833Z" fill="white"/>
<path d="M39.7657 15.5168C39.7657 15.5168 39.4044 15.296 38.8022 15.296H34.9682V17.223H38.0394C38.6416 17.223 39.0631 17.0825 39.0631 17.0825V18.9895C39.0631 18.9895 38.6215 18.8089 38.0193 18.8089H34.9481V20.756C34.9481 21.3582 35.1689 21.6392 35.1689 21.6392H31.3348C31.3348 21.6392 31.5757 21.3582 31.5757 20.756V14.5131C31.5757 13.9109 31.3348 13.6299 31.3348 13.6299H39.7457V15.5168H39.7657Z" fill="white"/>
<path d="M86.4968 10.4783V19.0497C86.4968 20.2541 86.1957 21.2176 85.5935 21.9001C84.9913 22.5826 84.1482 22.9239 83.0843 22.9239C82.0003 22.9239 81.1573 22.5826 80.555 21.9001C79.9328 21.2176 79.6317 20.2741 79.6317 19.0497V6.18253H71.6625V19.3909C71.6625 22.6228 72.7063 25.2122 74.7939 27.1594C76.8816 29.1065 79.6517 30.0901 83.0843 30.0901C86.5169 30.0901 89.267 29.1065 91.3546 27.1594C93.4422 25.2122 94.466 22.6228 94.466 19.3909V6.18253H90.7926C88.4239 6.16245 86.4968 8.08951 86.4968 10.4783Z" fill="white"/>
<path d="M110.043 25.1923C109.642 24.4696 109.321 23.7269 109.04 22.944H107.434C106.591 22.944 105.948 22.7032 105.466 22.2415C104.985 21.7597 104.764 21.1174 104.764 20.2943V12.2248H109.14H109.943V10.4382V6.08228H104.563V0.0200748H103.861V0H96.7545V8.41081V12.9073L96.7746 12.9274V21.6593C96.7746 24.2287 97.4972 26.2562 98.9626 27.7215C100.428 29.1869 102.435 29.9296 105.005 29.9296H109.12C110.625 29.9296 112.753 29.9296 114.339 29.9296C112.572 28.7252 111.107 27.1394 110.043 25.1923Z" fill="white"/>
<path d="M60.7425 6.18286H52.3518V14.6137C53.9175 11.0005 57.2899 8.02963 60.7425 6.18286Z" fill="white"/>
<path d="M60.3811 8.69202C55.8646 11.5425 52.7933 16.4605 52.4922 22.1212H52.4722V29.8295H60.4012V22.9643C60.4414 18.0262 64.4561 14.0316 69.4142 14.0316V6.10254C68.9325 6.10254 68.4708 6.12261 68.0091 6.16276C65.1988 6.38357 62.6093 7.28688 60.3811 8.69202Z" fill="white"/>
<path d="M111.167 22.101C110.987 21.5791 110.846 21.0371 110.746 20.4951C110.846 21.0371 110.987 21.5791 111.167 22.101Z" fill="white"/>
<path d="M130.518 6.14247L129.695 7.92901C127.708 6.28298 125.339 5.45996 122.629 5.45996C119.076 5.45996 116.165 6.60415 113.897 8.91261C111.629 11.201 110.485 14.1518 110.485 17.745C110.485 18.5078 110.545 19.2304 110.645 19.933C110.665 20.1136 110.705 20.3144 110.746 20.495C110.846 21.0571 110.986 21.579 111.167 22.1009C111.408 22.8035 111.689 23.4659 112.05 24.1083C112.271 24.5097 112.512 24.9112 112.793 25.2725C113.315 26.0153 113.937 26.6777 114.62 27.2598C114.961 27.5609 115.322 27.8219 115.704 28.0828C115.925 28.2233 116.145 28.3639 116.386 28.5044C116.527 28.5847 116.667 28.665 116.808 28.7252C117.149 28.9058 117.49 29.0464 117.852 29.1869C118.032 29.2672 118.233 29.3274 118.414 29.3876C118.655 29.4679 118.895 29.5482 119.136 29.6084C119.417 29.6887 119.698 29.7489 119.979 29.8092C120.843 29.9697 121.726 30.0701 122.669 30.0701C125.339 30.0701 127.668 29.2672 129.655 27.6613L130.578 29.9095H136.5V6.14247H130.518ZM127.025 21.5188C126.042 22.5225 124.797 23.0243 123.312 23.0243C121.826 23.0243 120.582 22.5225 119.598 21.5188C118.614 20.5151 118.133 19.2505 118.133 17.745C118.133 16.2194 118.614 14.9547 119.598 13.9511C120.582 12.9474 121.806 12.4455 123.312 12.4455C124.817 12.4455 126.042 12.9474 127.025 13.9511C128.009 14.9547 128.511 16.2194 128.511 17.7249C128.511 19.2304 128.009 20.5151 127.025 21.5188Z" fill="white"/>
</svg>
